<?xml version="1.0" encoding="UTF-8" standalone="no"?>
<!-- Created with Inkscape (http://www.inkscape.org/) -->

<svg
   width="1544"
   height="500"
   viewBox="0 0 1544 500"
   version="1.1"
   id="svg1"
   xmlns="http://www.w3.org/2000/svg"
   xmlns:svg="http://www.w3.org/2000/svg">
  <defs
     id="defs1">
    <clipPath
       id="clip0_73_34947">
      <rect
         width="263.15799"
         height="40"
         fill="#ffffff"
         id="rect1"
         x="0"
         y="0" />
    </clipPath>
  </defs>
  <g
     id="layer1">
    <rect
       style="fill:#ec5627;fill-opacity:1;stroke-width:1.06487"
       id="rect2"
       width="1544"
       height="500"
       x="0"
       y="0" />
    <path
       fill-rule="evenodd"
       clip-rule="evenodd"
       d="m 418.25073,177.43881 v 2.54541 c 0,0.30356 0.15291,0.57181 0.38534,0.73581 h 15.95551 c 0.54892,0 1.09631,0.0571 1.62279,0.15102 2.68372,0.50197 5.01785,2.25311 6.23133,4.76288 l 1.54177,3.38389 7.21124,15.75588 c 0.16396,0.29214 0.4561,0.46773 0.79428,0.46773 1.13208,0 2.1603,0.4663 2.91767,1.20214 0.70146,0.72296 1.15642,1.69122 1.19066,2.76643 -0.18678,7.20112 -6.09211,12.97788 -13.34026,12.97788 h -3.02305 c -0.33817,0 -0.66456,0.18678 -0.80454,0.51354 l -18.88459,41.18862 c -0.26932,0.58315 -0.39752,1.21499 -0.39752,1.85673 v 57.58615 c 0,0.47778 -0.39676,0.88709 -0.88558,0.88709 h -6.60679 c -0.31497,0 -0.61891,-0.17423 -0.78135,-0.45496 l -10.39976,-18.52246 c -0.15139,-0.28073 -0.15139,-0.60749 0,-0.8753 1.35309,-2.41706 8.07666,-14.28593 8.13525,-14.40271 0.0456,-0.07 0.081,-0.17537 0.11526,-0.26819 0.0229,-0.094 0.0472,-0.17536 0.0586,-0.26932 0.11716,-0.72314 -0.44203,-1.56458 -1.1549,-1.74984 -0.65314,-0.17537 -1.27206,0.07 -1.6342,0.53598 -0.0928,0.0829 -0.1514,0.18716 -0.19819,0.29253 -0.0342,0.0586 -19.93412,35.25931 -19.93412,35.25931 -0.15253,0.26818 -0.44506,0.45496 -0.77145,0.45496 h -6.46566 c -0.49034,0 -0.8871,-0.40931 -0.8871,-0.88709 v -33.62511 c 0,-0.49034 -0.39751,-0.88709 -0.88671,-0.88709 h -34.46655 c -0.49072,0 -0.87568,0.39675 -0.87568,0.88709 v 33.62511 c 0,0.47778 -0.39638,0.88709 -0.88672,0.88709 h -6.60526 c -0.32677,0 -0.62044,-0.17423 -0.77032,-0.45496 l -10.4241,-18.53387 c -0.16244,-0.28073 -0.16244,-0.60749 0,-0.8753 l 7.01457,-12.41931 1.52351,-9.7e-4 c 0.87188,-9.8e-4 1.8594,-0.004 2.2242,-0.0114 h 0.1396 c 0.82852,-0.0342 1.4946,-0.72428 1.4946,-1.5528 0,-0.71173 -0.46789,-1.3063 -1.10963,-1.48166 -0.0342,-0.0114 -0.0924,-0.0229 -0.13961,-0.0342 -0.0586,-0.0114 -0.11678,-0.0229 -0.17536,-0.0229 l -0.0962,-0.0114 -4.14028,-0.002 c -0.99285,0 -1.90238,0.53636 -2.38016,1.40063 l -18.97869,33.55515 c -0.15102,0.27959 -0.45493,0.45495 -0.77005,0.45495 l -6.44269,-0.0114 c -0.49052,0 -0.87556,-0.40931 -0.87556,-0.88709 v -74.48736 c 0,-0.80569 -0.9925,-1.19065 -1.54009,-0.59456 -1.56432,1.62126 -3.34966,3.09303 -5.33466,4.31791 -0.77004,0.49072 -1.57573,0.94569 -2.41566,1.35347 -0.68875,0.32791 -1.36609,0.63033 -2.06625,0.91106 -0.27959,0.11564 -0.49056,0.35073 -0.54759,0.64174 -0.72444,3.15162 -3.19852,5.77676 -6.59527,6.53679 -4.34219,0.94416 -8.66012,-1.54138 -10.06045,-5.66111 -0.18677,-0.51354 0.1282,-1.06246 0.6417,-1.16669 3.20994,-0.62005 8.85831,-1.91494 11.81159,-2.58102 1.80959,-0.40779 3.57211,-1.04952 5.22914,-1.85521 0.77004,-0.39637 1.52867,-0.81709 2.26447,-1.28347 4.00281,-2.53233 7.16568,-6.12749 9.05658,-10.27119 l 11.85859,-21.11373 c 0.78135,-1.40026 2.26453,-2.26415 3.86297,-2.26415 l 65.46499,-0.0114 c 0.23395,0 0.44356,-0.0944 0.60751,-0.25678 l 19.80554,-19.09567 c 0.21112,-0.20961 0.51354,-0.29101 0.80569,-0.23243 1.85673,0.385 3.86334,0.34921 5.92968,-0.27959 1.76239,-0.5148 3.33801,-1.5415 4.62149,-2.83775 l 0.10536,-0.10423 c 0.0114,-0.0114 0.0229,-0.0114 0.0229,-0.0229 0.59495,-0.61742 0.58354,-1.59851 -0.0229,-2.19315 -0.15253,-0.16396 -0.35073,-0.29215 -0.54892,-0.35073 -0.47892,-0.07 -0.99246,0.0814 -1.36449,0.45633 -1.55317,1.63275 -3.74771,2.64949 -6.18759,2.64949 -4.43471,0 -8.06411,-3.32687 -8.59021,-7.61056 -0.0456,-0.54903 0.37509,-1.01533 0.92248,-1.01533 h 11.84605 c 0.21111,-0.0699 0.38648,-0.22253 0.49033,-0.42064 l 3.9573,-7.01451 0.47779,-0.85133 c 0.84107,-1.49445 3.12842,-0.8998 3.12842,0.81569 z m 106.24163,43.56235 c 11.93277,0 21.89317,4.3377 28.40182,12.22796 l -10.25598,9.46703 c -4.63441,-5.32447 -10.45415,-8.08693 -17.35728,-8.08693 -12.91953,0 -22.09022,9.07369 -22.09022,22.09022 0,13.01807 9.17069,22.09175 22.09022,22.09175 6.90313,0 12.72287,-2.76208 17.35728,-8.18659 l 10.25598,9.46854 c -6.50865,7.98841 -16.46905,12.32763 -28.50149,12.32763 -21.40018,0 -37.37586,-14.89153 -37.37586,-35.70133 0,-20.80676 15.97568,-35.69828 37.47553,-35.69828 z m 546.59544,0 c 11.9331,0 21.892,4.3377 28.4007,12.22796 l -10.2557,9.46703 c -4.6332,-5.32447 -10.4533,-8.08693 -17.3576,-8.08693 -12.9184,0 -22.0898,9.07369 -22.0898,22.09022 0,13.01807 9.1714,22.09175 22.0898,22.09175 6.9043,0 12.7244,-2.76208 17.3576,-8.18659 l 10.2557,9.46854 c -6.5087,7.98841 -16.4676,12.32763 -28.4996,12.32763 -21.4014,0 -37.3782,-14.89153 -37.3782,-35.70133 0,-20.80676 15.9768,-35.69828 37.4771,-35.69828 z m 191.3718,51.87253 c 5.4473,0 9.5404,4.11973 9.5404,9.51153 0,5.39293 -4.1996,9.61956 -9.5937,9.61956 -5.3903,0 -9.5366,-4.22663 -9.5366,-9.56555 0,-5.3374 4.1463,-9.56554 9.5899,-9.56554 z M 759.19745,237.37092 c 14.99159,0 27.32035,9.86226 27.41546,26.82469 l -39.24971,7.59203 c 2.27099,5.22746 7.20098,7.8914 14.10145,7.8914 5.62231,0 9.66597,-1.67832 13.31401,-5.12931 l 8.18621,8.87664 c -4.92999,5.62156 -12.32878,8.57917 -21.89204,8.57917 -18.3429,0 -30.27607,-11.53792 -30.27607,-27.31807 0,-15.87563 12.03207,-27.31655 28.40069,-27.31655 z m 96.0549,0 c 7.29607,0 15.38338,1.67719 20.41228,4.63594 l -5.1278,10.94602 c -5.2267,-2.95761 -10.45341,-3.94589 -15.28448,-3.94589 -6.90807,0 -9.86378,2.17056 -9.86378,4.93264 0,9.07217 32.04872,0.2952 32.04872,21.20314 0,9.86112 -9.16765,16.86277 -25.04556,16.86277 -8.97744,0 -18.04619,-2.46576 -22.97998,-5.7197 l 5.1278,-11.04455 c 4.73218,3.05576 11.93316,5.1278 18.4418,5.1278 7.10207,0 9.76488,-1.87346 9.76488,-4.83412 0,-8.67732 -32.05253,0.19818 -32.05253,-21.00495 0,-10.05893 9.07255,-17.1591 24.55865,-17.1591 z m 275.88535,7.6e-4 c 16.8632,0 29.0931,11.34088 29.0931,27.31655 0,15.97682 -12.2299,27.31655 -29.0931,27.31655 -16.8631,0 -29.1919,-11.33973 -29.1919,-27.31655 0,-15.97567 12.3288,-27.31655 29.1919,-27.31655 z m -546.59687,0 c 16.86391,0 29.09187,11.34088 29.09187,27.31655 0,15.97682 -12.22796,27.31655 -29.09187,27.31655 -16.86391,0 -29.19002,-11.33973 -29.19002,-27.31655 0,-15.97567 12.32611,-27.31655 29.19002,-27.31655 z m 351.80146,0 c 16.86694,0 29.09301,11.34088 29.09301,27.31655 0,15.97682 -12.22607,27.31655 -29.09301,27.31655 -16.86315,0 -29.18813,-11.33973 -29.18813,-27.31655 0,-15.97567 12.32498,-27.31655 29.18813,-27.31655 z m 245.09961,0.78858 v 28.10626 c 0,8.77697 2.8568,12.82139 9.3692,12.82139 6.5088,0 9.6622,-4.04442 9.6622,-12.82139 v -28.10626 h 15.3872 v 28.10626 c 0,8.77697 3.1536,12.82139 9.666,12.82139 6.5048,0 9.3654,-4.04442 9.3654,-12.82139 v -28.10626 h 15.3834 v 29.29005 c 0,15.58045 -8.7758,24.55409 -24.6537,24.55409 -7.296,0 -13.3102,-1.97048 -17.4527,-7.49504 -4.0475,5.32638 -9.8639,7.49504 -17.5555,7.49504 -15.9768,0 -24.5549,-8.97364 -24.5549,-24.55409 v -29.29005 z m -493.07118,0 14.69487,36.09352 15.18557,-36.09352 h 14.79377 l -22.38656,53.05709 h -15.87791 l -22.28385,-53.05709 z m 211.5178,-3.9e-4 v 53.05748 h -15.38339 v -53.05748 z m -248.09596,-0.78781 c 12.52544,0 21.99361,7.29684 21.99361,23.47032 v 30.37382 h -15.3872 v -28.00659 c 0,-8.58031 -3.94474,-12.52581 -10.74896,-12.52581 -7.39537,0 -12.72135,4.5374 -12.72135,14.30115 v 26.23125 h -15.38529 v -53.05556 h 14.69523 v 6.21307 c 4.14105,-4.53627 10.35527,-7.00165 17.55396,-7.00165 z m 174.43143,-7.6e-4 v 14.19997 c -1.28194,-0.0982 -2.26718,-0.19515 -3.45403,-0.19515 -8.47912,0 -14.10144,4.63442 -14.10144,14.79187 v 25.04898 h -15.38339 v -53.0571 H 807.98 v 7.00165 c 3.74694,-5.12665 10.05778,-7.79022 18.24399,-7.79022 z m 178.13011,7.6e-4 c 12.5266,0 21.991,7.29684 21.991,23.47032 v 30.37382 h -15.3796 v -28.00659 c 0,-8.58031 -3.9486,-12.52581 -10.7539,-12.52581 -7.39508,0 -12.72069,4.5374 -12.72069,14.30115 v 26.23125 h -15.38338 v -53.05556 h 14.69486 v 6.21307 c 4.13875,-4.53627 10.35456,-7.00165 17.55171,-7.00165 z m 258.1055,37.26402 c -4.4698,0 -7.7221,3.41409 -7.7221,7.80315 0,4.39058 3.2523,7.80468 7.6688,7.80468 4.4164,0 7.7525,-3.44111 7.7525,-7.85869 0,-4.41645 -3.2258,-7.74914 -7.6992,-7.74914 z m 0.3005,2.33033 c 2.1644,0 3.8458,1.00236 4.6332,2.57379 l -2.4383,1.43601 c -0.5136,-0.89394 -1.301,-1.2732 -2.2216,-1.2732 -1.4112,0 -2.5752,1.02937 -2.5752,2.73622 0,1.70685 1.164,2.7366 2.5752,2.7366 0.9206,0 1.708,-0.37774 2.2216,-1.27358 l 2.4383,1.41052 c -0.7874,1.59844 -2.4688,2.60081 -4.6332,2.60081 -3.3589,0 -5.7707,-2.27556 -5.7707,-5.47435 0,-3.19688 2.4118,-5.47282 5.7707,-5.47282 z m -131.6224,-26.9719 c -7.6916,0 -13.6107,5.5215 -13.6107,14.69372 0,9.17183 5.9191,14.69334 13.6107,14.69334 7.6918,0 13.5119,-5.52151 13.5119,-14.69334 0,-9.17222 -5.8201,-14.69372 -13.5119,-14.69372 z m -546.59687,0 c -7.69322,0 -13.60959,5.5215 -13.60959,14.69372 0,9.17183 5.91637,14.69334 13.60959,14.69334 7.69207,0 13.51144,-5.52151 13.51144,-14.69334 0,-9.17222 -5.81937,-14.69372 -13.51144,-14.69372 z m 351.80146,0 c -7.6917,0 -13.60693,5.5215 -13.60693,14.69372 0,9.17183 5.91523,14.69334 13.60693,14.69334 7.69549,0 13.51182,-5.52151 13.51182,-14.69334 0,-9.17222 -5.81633,-14.69372 -13.51182,-14.69372 z m -501.77506,1.96704 c 0.59609,-0.37202 1.39036,-0.25638 1.85674,0.28112 l 12.1264,13.72522 c 0.60635,0.68891 0.44355,1.73958 -0.33779,2.21736 l -4.01551,2.46271 c 0.82851,1.33064 0.40779,3.07021 -0.91144,3.88732 -1.33026,0.80416 -3.06869,0.39637 -3.8972,-0.93389 l -4.00409,2.46271 c -0.76994,0.47893 -1.78523,0.13961 -2.1234,-0.70032 l -6.75781,-17.01796 c -0.26933,-0.66457 -0.0229,-1.42308 0.58316,-1.79664 z m 324.63022,-2.95456 c -7.69169,0 -13.01729,5.12931 -13.31401,14.10334 l 25.8406,-5.02965 c -1.47976,-5.42299 -6.11303,-9.07369 -12.52659,-9.07369 z m 132.99938,-35.4042 c 5.72122,0 9.56706,3.55213 9.56706,8.28507 0,5.12781 -3.84584,8.8755 -9.56706,8.8755 -5.71742,0 -9.56327,-3.74769 -9.56327,-8.57878 0,-4.83299 3.84585,-8.58179 9.56327,-8.58179 z"
       fill="#ec5627"
       id="path1"
       style="fill:#ffffff;fill-opacity:1;stroke-width:3.80997;stroke-dasharray:none" />
  </g>
</svg>
