<?xml version="1.0" encoding="UTF-8" standalone="no"?>
<!-- Created with Inkscape (http://www.inkscape.org/) -->

<svg
   width="512"
   height="512"
   viewBox="0 0 512 512"
   version="1.1"
   id="svg1"
   xmlns="http://www.w3.org/2000/svg"
   xmlns:svg="http://www.w3.org/2000/svg"
   xmlns:rdf="http://www.w3.org/1999/02/22-rdf-syntax-ns#"
   xmlns:cc="http://creativecommons.org/ns#"
   xmlns:dc="http://purl.org/dc/elements/1.1/">
  <title
     id="title1">ConversionCow-Stacked</title>
  <defs
     id="defs1" />
  <g
     id="layer1">
    <rect
       style="fill:#ec5627;stroke-width:0;stroke-dasharray:none"
       id="rect1"
       width="512"
       height="512"
       x="0"
       y="0"
       rx="0" />
    <g
       id="g1"
       style="fill:#ffffff;fill-opacity:1"
       transform="matrix(3.8223612,0,0,3.8223612,-1327.1847,-1331.2611)">
      <path
         d="m 460.99052,425.36318 -2.23,1.37 c 0.29296,0.47874 0.30826,1.0774 0.0401,1.57047 -0.26812,0.49308 -0.77892,0.80566 -1.34,0.82 -0.56108,0.0143 -1.08718,-0.27173 -1.38014,-0.75047 l -2.23,1.37 c -0.20598,0.12237 -0.45517,0.14854 -0.68208,0.0716 -0.2269,-0.0769 -0.40881,-0.24922 -0.49792,-0.47162 l -3.75,-9.46 c -0.15759,-0.36649 -0.0211,-0.79308 0.32,-1 l 4.16,-2.56 c 0.32969,-0.18731 0.74521,-0.12082 1,0.16 l 6.75,7.63 c 0.1624,0.17976 0.23816,0.42149 0.2074,0.66179 -0.0308,0.24029 -0.16496,0.45515 -0.3674,0.58821 z"
         id="Path"
         style="fill:#ffffff;fill-opacity:1" />
      <path
         d="m 465.37052,392.57318 c -0.10838,4.01412 -3.39442,7.21146 -7.41,7.21 h -1.68 c -0.19422,-0.001 -0.37073,0.11269 -0.45,0.29 l -10.5,22.91 c -0.14411,0.31373 -0.21914,0.65476 -0.22,1 v 32 c 3e-5,0.13171 -0.053,0.25788 -0.14704,0.35007 -0.0941,0.0922 -0.22128,0.14262 -0.35296,0.13993 h -3.67 c -0.17756,-0.001 -0.34122,-0.0962 -0.43,-0.25 l -5.78,-10.24 c -0.0901,-0.14732 -0.0901,-0.33268 0,-0.48 0.75,-1.34 4.49,-7.94 4.52,-8 0.0318,-0.0444 0.0523,-0.0959 0.06,-0.15 0.006,-0.0498 0.006,-0.10016 0,-0.15 0.0508,-0.44293 -0.21652,-0.86062 -0.64,-1 -0.33912,-0.0955 -0.70237,0.0229 -0.92,0.3 -0.0425,0.0471 -0.0763,0.10121 -0.1,0.16 l -11,19.59 c -0.0888,0.15377 -0.25244,0.24893 -0.43,0.25 h -3.59 c -0.13168,0.003 -0.2589,-0.0478 -0.35297,-0.13993 -0.0941,-0.0922 -0.14706,-0.21836 -0.14703,-0.35007 v -18.69 c 0,-0.27062 -0.21938,-0.49 -0.49,-0.49 h -19.2 c -0.13078,-0.003 -0.25702,0.048 -0.34952,0.14048 -0.0925,0.0925 -0.14323,0.21874 -0.14048,0.34952 v 18.66 c 0,0.27062 -0.21938,0.49 -0.49,0.49 h -3.68 c -0.1787,0.003 -0.34439,-0.0931 -0.43,-0.25 l -5.79,-10.24 c -0.0896,-0.15103 -0.0896,-0.33897 0,-0.49 l 3.9,-6.9 h 2.19 c 0.46096,-0.0212 0.82518,-0.39858 0.83,-0.86 7.7e-4,-0.3815 -0.25273,-0.71677 -0.62,-0.82 h -0.07 -0.1 -2.35 c -0.54999,-0.003 -1.05863,0.29161 -1.33,0.77 l -10.57,18.58 c -0.0916,0.15093 -0.25352,0.24507 -0.43,0.2501 h -3.58 c -0.13168,0.003 -0.2589,-0.0478 -0.35297,-0.14003 -0.0941,-0.0922 -0.14706,-0.21836 -0.14703,-0.35007 v -41.41 c 0.003,-0.20313 -0.11933,-0.38715 -0.30796,-0.4626 -0.18863,-0.0754 -0.40425,-0.0267 -0.54204,0.1226 -0.89366,0.92455 -1.90183,1.73109 -3,2.4 -0.43064,0.2806 -0.87816,0.53441 -1.34,0.76 -0.38,0.18 -0.76,0.35 -1.15,0.5 -0.15352,0.0628 -0.26591,0.19767 -0.3,0.36 -0.48115,2.09988 -2.29732,3.62549 -4.44873,3.73701 -2.15141,0.11152 -4.11558,-1.21814 -4.81127,-3.25701 -0.0497,-0.13258 -0.0383,-0.28034 0.0311,-0.40374 0.0694,-0.1234 0.18977,-0.20986 0.32887,-0.23626 1.78,-0.35 4.92,-1.07 6.56,-1.44 1.0064,-0.21613 1.98334,-0.55185 2.91,-1 0.43,-0.22 0.85,-0.45 1.26,-0.71 2.18063,-1.38344 3.91653,-3.36583 5,-5.71 l 6.59,-11.74 c 0.43675,-0.77724 1.25846,-1.2588 2.15,-1.26 h 36.39 c 0.12965,10e-4 0.25357,-0.0534 0.34,-0.15 l 11.06,-10.64 c 0.11917,-0.11526 0.28772,-0.16395 0.45,-0.13 1.09601,0.22425 2.23082,0.16923 3.3,-0.16 0.9732,-0.30302 1.85617,-0.84242 2.57,-1.57 l 0.06,-0.06 v 0 c 0.32764,-0.34067 0.32764,-0.87933 0,-1.22 -0.0857,-0.0885 -0.1923,-0.15383 -0.31,-0.19 -0.27834,-0.0385 -0.55885,0.0538 -0.76,0.25 -0.89456,0.94389 -2.13957,1.47591 -3.44,1.47 -2.42693,-0.002 -4.47231,-1.8114 -4.77,-4.22 -0.014,-0.14462 0.0332,-0.28851 0.13006,-0.39679 0.0969,-0.10828 0.23466,-0.17109 0.37994,-0.17321 h 6.58 c 0.11929,-0.0381 0.21948,-0.12037 0.28,-0.23 l 2.2,-3.9 0.26,-0.48 c 0.20702,-0.36701 0.63493,-0.54898 1.04288,-0.44348 0.40795,0.10551 0.69399,0.47212 0.69712,0.89348 v 1.4 c 10e-4,0.16454 0.0837,0.31786 0.22,0.41 h 8.87 c 0.30226,-3e-4 0.60378,0.0299 0.9,0.09 1.50692,0.28109 2.79094,1.2608 3.46,2.64 l 0.88,1.89 4,8.76 c 0.0923,0.16008 0.26533,0.25622 0.45,0.25 1.23451,-0.006 2.24738,0.97591 2.28,2.21 z"
         id="path1"
         style="fill:#ffffff;fill-opacity:1;stroke-width:1.00157;stroke-dasharray:none" />
    </g>
  </g>
  <metadata
     id="metadata1">
    <rdf:RDF>
      <cc:Work
         rdf:about="">
        <dc:title>ConversionCow-Stacked</dc:title>
      </cc:Work>
    </rdf:RDF>
  </metadata>
</svg>
